<svg xmlns="http://www.w3.org/2000/svg" width="692.11" height="183.44" viewBox="0 0 692.11 183.44"><title>multiplica_investimentos</title><path d="M105.59,103.7a11.18,11.18,0,1,1,11.18-11.18,11.19,11.19,0,0,1-11.18,11.18M38.24,51.4,76.76,84.77a13,13,0,1,0,17-19.68l-60-52a13,13,0,0,0-21.55,9.82v139.2a13,13,0,0,0,26,0Zm121.7,75.92a14.17,14.17,0,1,1-14.17-14.17,14.18,14.18,0,0,1,14.17,14.17m41.33,34.8A15.32,15.32,0,1,1,186,146.79a15.32,15.32,0,0,1,15.32,15.33m0-69.6A15.32,15.32,0,1,1,186,77.2a15.32,15.32,0,0,1,15.32,15.32m0-69.6A15.32,15.32,0,1,1,186,7.6a15.33,15.33,0,0,1,15.32,15.32m-41.33,34.8a14.17,14.17,0,1,1-14.17-14.17,14.18,14.18,0,0,1,14.17,14.17" fill="#7ccadd" fill-rule="evenodd"></path><path d="M263.83,93.29a4,4,0,0,0,2.13-.51,3.43,3.43,0,0,0,1.28-1.58l16-34.11v55.45a1.53,1.53,0,0,0,.4,1.14,1.48,1.48,0,0,0,1.14.41h10.34a1.48,1.48,0,0,0,1.14-.41,1.49,1.49,0,0,0,.4-1.14V38.71a1.71,1.71,0,0,0-.4-1.19,1.47,1.47,0,0,0-1.14-.46H282.21a4,4,0,0,0-2.26.55,3.79,3.79,0,0,0-1.26,1.54L260.31,78.44,241.94,39.15a3.89,3.89,0,0,0-1.27-1.54,4,4,0,0,0-2.25-.55H225.54a1.48,1.48,0,0,0-1.14.46,1.71,1.71,0,0,0-.4,1.19v73.83a1.41,1.41,0,0,0,1.54,1.55h10.34a1.42,1.42,0,0,0,1.55-1.55V57.09L253.38,91.2a3.46,3.46,0,0,0,1.3,1.58,3.9,3.9,0,0,0,2.11.51Z" fill="#fff"></path><path d="M345.64,103.63a41.8,41.8,0,0,1-5.43.79c-1.82.15-3.72.2-5.68.2a20.18,20.18,0,0,1-8-1.23,7.83,7.83,0,0,1-4.22-4.07,18.17,18.17,0,0,1-1.23-7.46V58.74a1.74,1.74,0,0,0-.42-1.25,1.9,1.9,0,0,0-1.34-.4H310a1.46,1.46,0,0,0-1.65,1.65V92.63c0,5.19.82,9.44,2.55,12.73a15.71,15.71,0,0,0,8.1,7.3c3.71,1.55,8.51,2.32,14.43,2.31,2.63,0,5.21-.1,7.78-.28s5-.44,7.41-.82a55.25,55.25,0,0,0,6.6-1.43,4,4,0,0,0,2.42-1.75,6.76,6.76,0,0,0,.77-3.54V58.74a1.46,1.46,0,0,0-1.65-1.65H347.4a1.9,1.9,0,0,0-1.34.4,1.7,1.7,0,0,0-.42,1.25Z" fill="#fff"></path><path d="M370.12,98.24a23.19,23.19,0,0,0,1.45,8.69,11.87,11.87,0,0,0,4.8,5.87A16.75,16.75,0,0,0,385.3,115a28.2,28.2,0,0,0,3.16-.21,33.29,33.29,0,0,0,3.37-.55c1.14-.23,2.18-.49,3.15-.78a2.82,2.82,0,0,0,1.34-.7,1.85,1.85,0,0,0,.43-1.28v-5.84a1.58,1.58,0,0,0-.43-1.21,1.56,1.56,0,0,0-1.34-.22c-.42.08-.89.15-1.48.22s-1.16.11-1.76.15-1.17.07-1.71.07a9.35,9.35,0,0,1-4.29-.8,4.59,4.59,0,0,1-2.24-2.5,12.41,12.41,0,0,1-.62-4.4V35.52a1.93,1.93,0,0,0-.42-1.3,1.82,1.82,0,0,0-1.34-.46h-9.35a1.61,1.61,0,0,0-1.23.46,1.88,1.88,0,0,0-.42,1.3Z" fill="#fff"></path><path d="M405.16,67.43h-9.24a1.84,1.84,0,0,1-1.29-.42,1.74,1.74,0,0,1-.47-1.34V58.85a1.74,1.74,0,0,1,.47-1.34,1.89,1.89,0,0,1,1.29-.42h9.24V43.67a2,2,0,0,1,.42-1.31,1.62,1.62,0,0,1,1.23-.45h9.35a1.82,1.82,0,0,1,1.34.45,1.93,1.93,0,0,1,.42,1.31V57.09h14.75a1.84,1.84,0,0,1,1.28.42,1.75,1.75,0,0,1,.48,1.34v6.82A1.75,1.75,0,0,1,434,67a1.8,1.8,0,0,1-1.28.42H417.92v28.5a14.36,14.36,0,0,0,.65,4.9,4.94,4.94,0,0,0,2.42,2.86,10.77,10.77,0,0,0,5,.93c1.44,0,2.84-.05,4.2-.13s2.54-.2,3.61-.31a1.56,1.56,0,0,1,1.13.2,1.3,1.3,0,0,1,.41,1.12v6a1.79,1.79,0,0,1-.35,1.18,2.12,2.12,0,0,1-1.08.7,23.7,23.7,0,0,1-3.17.84,38,38,0,0,1-3.78.51c-1.34.13-2.7.19-4.06.19a21,21,0,0,1-10.21-2.22,13.24,13.24,0,0,1-5.72-6.27,24,24,0,0,1-1.78-9.78Z" fill="#fff"></path><path d="M442.62,112.44a1.46,1.46,0,0,0,1.65,1.65h9.36a1.85,1.85,0,0,0,1.33-.43,1.61,1.61,0,0,0,.43-1.22V58.85a1.89,1.89,0,0,0-.43-1.3,1.77,1.77,0,0,0-1.33-.46h-9.36a1.55,1.55,0,0,0-1.22.46,1.89,1.89,0,0,0-.43,1.3Z" fill="#fff"></path><path d="M455.94,37.17a1.93,1.93,0,0,0-.42-1.3,1.63,1.63,0,0,0-1.23-.46h-10a1.63,1.63,0,0,0-1.23.46,1.93,1.93,0,0,0-.42,1.3V47a1.84,1.84,0,0,0,.42,1.28,1.57,1.57,0,0,0,1.23.48h7.05a3,3,0,0,0,1.88-.52,3.3,3.3,0,0,0,1.09-1.57,21.19,21.19,0,0,0,.86-2.92c.25-1.1.44-2.16.58-3.23a23.44,23.44,0,0,0,.21-2.77Z" fill="#fff"></path><path d="M517.31,73.15a23.36,23.36,0,0,0-5.39-8.94,24.2,24.2,0,0,0-9.41-5.89,40.48,40.48,0,0,0-13.73-2.11c-2.18,0-4.35.09-6.53.29s-4.27.48-6.31.85a48.65,48.65,0,0,0-5.65,1.39,4,4,0,0,0-2.42,1.67,6.61,6.61,0,0,0-.77,3.5v69.76a1.64,1.64,0,0,0,.41,1.19,1.41,1.41,0,0,0,1.13.46h9.58a1.58,1.58,0,0,0,1.65-1.65V112.22a27.58,27.58,0,0,0,4.4,1.5,42.09,42.09,0,0,0,5.13.92,45,45,0,0,0,5.43.33A26.4,26.4,0,0,0,505,113.06a21.26,21.26,0,0,0,7.61-5.37,23.78,23.78,0,0,0,4.79-8.27A32.58,32.58,0,0,0,519,88.78V84.49a34.68,34.68,0,0,0-1.73-11.34M506.27,88a21.46,21.46,0,0,1-1.85,9.59,11.4,11.4,0,0,1-5.55,5.35,21.7,21.7,0,0,1-9.21,1.67c-1.74,0-3.47-.05-5.19-.14s-3.25-.24-4.6-.41V67.54a29.51,29.51,0,0,1,4.16-.75,43.37,43.37,0,0,1,4.64-.24,19.74,19.74,0,0,1,9.7,2.2,14.13,14.13,0,0,1,5.9,6.37,23.21,23.21,0,0,1,2,10.14Z" fill="#fff"></path><path d="M527.45,98.24a23.19,23.19,0,0,0,1.45,8.69,11.89,11.89,0,0,0,4.81,5.87,16.7,16.7,0,0,0,8.93,2.17,28,28,0,0,0,3.15-.21,33,33,0,0,0,3.38-.55q1.7-.34,3.15-.78a2.92,2.92,0,0,0,1.34-.7,1.89,1.89,0,0,0,.42-1.28v-5.84a1.61,1.61,0,0,0-.42-1.21,1.57,1.57,0,0,0-1.34-.22c-.42.08-.9.15-1.49.22s-1.15.11-1.76.15-1.17.07-1.7.07a9.3,9.3,0,0,1-4.29-.8,4.55,4.55,0,0,1-2.24-2.5,12.41,12.41,0,0,1-.62-4.4V35.52a1.89,1.89,0,0,0-.43-1.3,1.82,1.82,0,0,0-1.34-.46H529.1a1.63,1.63,0,0,0-1.23.46,1.93,1.93,0,0,0-.42,1.3Z" fill="#fff"></path><path d="M558.42,112.44a1.46,1.46,0,0,0,1.65,1.65h9.36a1.89,1.89,0,0,0,1.34-.43,1.65,1.65,0,0,0,.42-1.22V58.85a1.93,1.93,0,0,0-.42-1.3,1.81,1.81,0,0,0-1.34-.46h-9.36a1.55,1.55,0,0,0-1.22.46,1.89,1.89,0,0,0-.43,1.3Z" fill="#fff"></path><path d="M571.74,37.17a1.93,1.93,0,0,0-.42-1.3,1.63,1.63,0,0,0-1.23-.46h-10a1.59,1.59,0,0,0-1.22.46,1.89,1.89,0,0,0-.43,1.3V47a1.8,1.8,0,0,0,.43,1.28,1.53,1.53,0,0,0,1.22.48h7a3,3,0,0,0,1.88-.52,3.3,3.3,0,0,0,1.09-1.57,21.19,21.19,0,0,0,.86-2.92c.26-1.1.44-2.16.59-3.23a25.52,25.52,0,0,0,.2-2.77Z" fill="#fff"></path><path d="M608.21,115a57.27,57.27,0,0,0,6-.32,54.77,54.77,0,0,0,5.54-.78,31.81,31.81,0,0,0,4.27-1.1,2.76,2.76,0,0,0,1.38-.83,2.45,2.45,0,0,0,.38-1.49V105a1.35,1.35,0,0,0-.47-1.12,1.82,1.82,0,0,0-1.4-.2c-1.11.19-2.42.35-3.9.5s-3.06.27-4.73.36-3.34.13-5,.13A23.76,23.76,0,0,1,600,102.7a12,12,0,0,1-5.8-5.8,22.53,22.53,0,0,1-1.81-9.77v-3a23,23,0,0,1,1.79-9.8,12,12,0,0,1,5.72-5.86,22.41,22.41,0,0,1,10.09-2c1.65,0,3.28,0,4.9.11s3.11.19,4.54.33,2.72.33,3.87.55a1.86,1.86,0,0,0,1.4-.2,1.37,1.37,0,0,0,.48-1.12v-5.5a2.42,2.42,0,0,0-.39-1.48,2.74,2.74,0,0,0-1.38-.83,31.44,31.44,0,0,0-4.25-1.1,53,53,0,0,0-5.47-.81c-2-.18-4-.29-6-.29a36.89,36.89,0,0,0-12.56,2,21.83,21.83,0,0,0-13.83,14.14A35.11,35.11,0,0,0,579.6,83.5v4.29A35.57,35.57,0,0,0,581.23,99a22.09,22.09,0,0,0,5.12,8.56,22.77,22.77,0,0,0,8.89,5.5,39.22,39.22,0,0,0,13,2" fill="#fff"></path><path d="M678.94,68.18a15,15,0,0,0-4.62-6.85,20.26,20.26,0,0,0-8.42-3.89A55.59,55.59,0,0,0,653,56.21c-2.18,0-4.29.11-6.34.29a55.14,55.14,0,0,0-5.65.81,31.78,31.78,0,0,0-4.29,1.1,2.85,2.85,0,0,0-1.38.82,2.54,2.54,0,0,0-.38,1.49v5.5a1.34,1.34,0,0,0,.48,1.12,1.84,1.84,0,0,0,1.39.2c1.16-.22,2.46-.4,3.92-.55s3-.25,4.66-.33,3.29-.11,4.95-.11a43.62,43.62,0,0,1,8.71.66,11.45,11.45,0,0,1,5.25,2.22,8.18,8.18,0,0,1,2.55,4.18,25.09,25.09,0,0,1,.66,6.48V82.4a38.58,38.58,0,0,0-5.17-1.75,48.77,48.77,0,0,0-6-1.13,47.7,47.7,0,0,0-6.35-.42,27.64,27.64,0,0,0-11.11,2,14.87,14.87,0,0,0-7,6A18.82,18.82,0,0,0,629.5,97a21.58,21.58,0,0,0,1.3,8,12.83,12.83,0,0,0,4.29,5.59,20.33,20.33,0,0,0,7.83,3.28A55.66,55.66,0,0,0,654.8,115q3.88,0,7.93-.3c2.67-.18,5.26-.46,7.74-.8a62.35,62.35,0,0,0,6.67-1.33,3.67,3.67,0,0,0,2.42-1.68,7,7,0,0,0,.77-3.6V78.33a31.88,31.88,0,0,0-1.39-10.15m-11.37,35.45a40.88,40.88,0,0,1-5.45.79c-1.85.15-3.67.2-5.44.2a51.13,51.13,0,0,1-7.08-.4,13.59,13.59,0,0,1-4.42-1.32,5.2,5.2,0,0,1-2.28-2.37,8,8,0,0,1-.64-3.5,7.76,7.76,0,0,1,1.08-4.44,6.54,6.54,0,0,1,3.85-2.49,29.68,29.68,0,0,1,7.61-.77c2.44,0,4.74.07,6.88.24a53.23,53.23,0,0,1,5.89.75Z" fill="#fff"></path><path d="M349.69,169.12c-5.81,0-8.67-3.75-8.67-11v-1.08c0-7.21,2.76-11,8.51-11a22.7,22.7,0,0,1,4.7.44.23.23,0,0,1,.19.22v.76c0,.2-.09.26-.25.23a32.37,32.37,0,0,0-4.35-.32c-4.86,0-7.34,2.79-7.34,9.75V158c0,7,2.51,9.75,7.49,9.75a28.92,28.92,0,0,0,4.51-.32c.16,0,.26,0,.26.22v.77a.23.23,0,0,1-.19.22,25.8,25.8,0,0,1-4.86.44" fill="#fff"></path><path d="M359.57,153.88a1.14,1.14,0,0,1,.79-1.18,17.2,17.2,0,0,1,5-.67,21.28,21.28,0,0,1,2.67.13c.22,0,.31.13.31.32v.76c0,.19-.09.29-.31.25a21.11,21.11,0,0,0-2.86-.19,14.78,14.78,0,0,0-4.16.54v14.58c0,.23-.1.32-.32.32h-.77c-.22,0-.31-.09-.31-.32Z" fill="#fff"></path><path d="M379.23,169c-5.43,0-8-2.7-8-8.36v-.73c0-4.86,2.66-7.88,7.08-7.88s6.64,2.64,6.64,6.45c0,2.19-1.21,3.11-3.72,3.11h-8.61c.26,4.45,2.26,6.13,6.77,6.13a19.19,19.19,0,0,0,4.22-.41c.16,0,.26,0,.26.22v.7a.25.25,0,0,1-.22.26,16.58,16.58,0,0,1-4.42.51m2.22-8.64c1.5,0,2.13-.48,2.13-1.85,0-3.52-2-5.21-5.27-5.21-3.62,0-5.69,2.2-5.69,6.58v.48Zm-5.08-10-.38-.26c-.16-.12-.16-.25,0-.41l4.13-4.86a.33.33,0,0,1,.51-.06l.57.38a.25.25,0,0,1,.06.41,37,37,0,0,1-4.45,4.77.3.3,0,0,1-.41,0" fill="#fff"></path><path d="M401.31,145.87c0-.22.09-.32.31-.32h.77c.22,0,.31.1.31.32v21.31a1.11,1.11,0,0,1-.79,1.15,16.61,16.61,0,0,1-4.64.67c-5.46,0-8.13-3.43-8.13-8.17v-1.11c0-5.34,3.27-7.69,7.94-7.69a14.69,14.69,0,0,1,4.23.61Zm-10.77,14.07v.67c0,4.61,2.29,7.11,6.86,7.11a14.48,14.48,0,0,0,3.91-.54V153.69a19.62,19.62,0,0,0-4.1-.39c-4.23,0-6.67,2-6.67,6.64" fill="#fff"></path><path d="M410.42,146a.26.26,0,0,1,.29.29,12.31,12.31,0,0,1-.35,3c0,.16-.16.26-.38.26h-.54a.28.28,0,0,1-.32-.32v-2.89a.28.28,0,0,1,.32-.32Zm.1,22.39c0,.23-.1.32-.32.32h-.76c-.22,0-.32-.09-.32-.32V152.6c0-.22.1-.31.32-.31h.76c.22,0,.32.09.32.31Z" fill="#fff"></path><path d="M418.65,148.22a.28.28,0,0,1,.32-.32h.76a.28.28,0,0,1,.32.32v4.07h4.76c.23,0,.32.09.32.31v.64c0,.22-.09.32-.32.32h-4.76v11.05c0,2.13.86,3.12,2.7,3.12a11,11,0,0,0,2.41-.23c.19,0,.29,0,.29.23v.66c0,.16-.07.22-.22.29a9,9,0,0,1-2.58.32c-2.47,0-4-1.34-4-4.36V153.56h-3.14c-.23,0-.32-.1-.32-.32v-.64c0-.22.09-.31.32-.31h3.14Z" fill="#fff"></path><path d="M443.24,159.94v1.15c0,4.92-2.54,7.91-7.09,7.91s-7.08-3-7.08-7.91v-1.15c0-4.92,2.51-7.91,7.08-7.91s7.09,3,7.09,7.91m-12.77.16v.83c0,4.6,2,6.8,5.68,6.8s5.69-2.2,5.69-6.8v-.83c0-4.6-2-6.8-5.69-6.8s-5.68,2.2-5.68,6.8" fill="#fff"></path><path d="M474.62,158.07c.22,0,.32.13.29.35a17,17,0,0,1-2,6.54l2.92,3.43c.16.16.09.35-.13.35h-1.05a.54.54,0,0,1-.41-.19l-2.13-2.48a8.33,8.33,0,0,1-6.92,3.05c-4.35,0-7-2.28-7-5.65,0-2.89,1.78-5.31,5.5-7.21L461.85,154c-1.36-1.62-2-2.73-2-4.09,0-2.54,1.84-3.81,6-3.81a19.87,19.87,0,0,1,4.39.44.22.22,0,0,1,.19.22v.76c0,.19-.1.26-.26.23a26.66,26.66,0,0,0-4-.32c-3.69,0-4.83.76-4.83,2.45,0,.88.32,1.71,1.59,3.2L472,163.85a16.89,16.89,0,0,0,1.75-5.59.3.3,0,0,1,.38-.29Zm-9.27,9.72a6.92,6.92,0,0,0,5.84-2.8l-6.67-7.81c-3.49,1.94-4.83,3.91-4.83,6.23,0,2.82,2,4.38,5.66,4.38" fill="#fff"></path><rect x="492.51" y="146.51" width="1.46" height="22.24" rx="0.32" fill="#fff"></rect><path d="M506.61,152c4.83,0,7.08,1.81,7.08,6.07v10.32c0,.23-.09.32-.32.32h-.76c-.22,0-.32-.09-.32-.32V158.1c0-3.56-1.77-4.8-5.84-4.8a15.75,15.75,0,0,0-4.35.54v14.58c0,.23-.1.32-.32.32H501c-.22,0-.32-.09-.32-.32V153.84a1.11,1.11,0,0,1,.8-1.14,17.44,17.44,0,0,1,5.11-.67" fill="#fff"></path><path d="M524.49,168.74a.46.46,0,0,1-.47-.32L518,152.67c-.1-.26,0-.38.22-.38H519a.37.37,0,0,1,.35.25L525,167.38l5.66-14.84a.36.36,0,0,1,.34-.25h.83c.22,0,.32.12.22.38L526,168.42a.48.48,0,0,1-.48.32Z" fill="#fff"></path><path d="M543.52,169c-5.43,0-8-2.7-8-8.36v-.73c0-4.86,2.66-7.88,7.08-7.88s6.64,2.64,6.64,6.45c0,2.19-1.21,3.11-3.72,3.11h-8.61c.26,4.45,2.26,6.14,6.77,6.14a19.16,19.16,0,0,0,4.22-.42c.16,0,.26,0,.26.22v.7a.25.25,0,0,1-.22.26,16.58,16.58,0,0,1-4.42.51m2.22-8.64c1.5,0,2.13-.48,2.13-1.85,0-3.52-2-5.21-5.27-5.21-3.62,0-5.69,2.2-5.69,6.58v.48Z" fill="#fff"></path><path d="M553.81,168.49a.25.25,0,0,1-.22-.26v-.7c0-.19.1-.25.25-.22a22.38,22.38,0,0,0,4.55.41c3.17,0,4.6-.92,4.6-2.89,0-1.65-.6-2.63-2.51-3.39l-3.59-1.5c-2.28-1-3.3-2.16-3.3-4.06,0-2.58,1.72-3.85,5.24-3.85a18.46,18.46,0,0,1,4.35.48c.19,0,.26.13.26.25v.7c0,.19-.1.26-.26.23a23.67,23.67,0,0,0-4.22-.39c-2.8,0-4,.86-4,2.55,0,1.3.63,2.12,2.54,2.92l3.56,1.49c2.41,1,3.3,2.51,3.3,4.54,0,2.86-2.16,4.2-5.88,4.2a19.23,19.23,0,0,1-4.7-.51" fill="#fff"></path><path d="M571.25,148.22a.28.28,0,0,1,.32-.32h.76a.28.28,0,0,1,.32.32v4.07h4.76c.23,0,.32.09.32.31v.64c0,.22-.09.32-.32.32h-4.76v11.05c0,2.13.86,3.12,2.7,3.12a11,11,0,0,0,2.41-.23c.19,0,.29,0,.29.23v.66c0,.16-.07.22-.22.29a9,9,0,0,1-2.58.32c-2.47,0-4-1.34-4-4.36V153.56h-3.14c-.23,0-.32-.1-.32-.32v-.64c0-.22.09-.31.32-.31h3.14Z" fill="#fff"></path><path d="M584.4,146a.26.26,0,0,1,.29.29,12.31,12.31,0,0,1-.35,3c0,.16-.16.26-.38.26h-.54c-.23,0-.32-.1-.32-.32v-2.89c0-.22.09-.32.32-.32Zm.1,22.39c0,.23-.1.32-.32.32h-.76c-.23,0-.32-.09-.32-.32V152.6c0-.22.09-.31.32-.31h.76c.22,0,.32.09.32.31Z" fill="#fff"></path><path d="M590.91,153.88a1.15,1.15,0,0,1,.8-1.18,17.48,17.48,0,0,1,4.76-.67,5.55,5.55,0,0,1,3.91,1.24,12.14,12.14,0,0,1,5.43-1.24c3.46,0,5.43,1.5,5.43,5v11.43c0,.23-.09.32-.31.32h-.77c-.22,0-.31-.09-.31-.32V157.31c0-3.18-1.47-4-4.2-4a10.17,10.17,0,0,0-4.48,1,5.68,5.68,0,0,1,.61,2.73v11.43c0,.23-.1.32-.32.32h-.76c-.23,0-.32-.09-.32-.32V157.31c0-2.93-1.27-4-4.07-4a15.6,15.6,0,0,0-4,.54v14.58c0,.23-.09.32-.32.32h-.76c-.22,0-.32-.09-.32-.32Z" fill="#fff"></path><path d="M624.24,169c-5.44,0-8-2.7-8-8.36v-.73c0-4.86,2.67-7.88,7.08-7.88s6.64,2.64,6.64,6.45c0,2.19-1.2,3.11-3.71,3.11h-8.61c.25,4.45,2.25,6.14,6.76,6.14a19.19,19.19,0,0,0,4.23-.42c.16,0,.25,0,.25.22v.7a.25.25,0,0,1-.22.26,16.5,16.5,0,0,1-4.41.51m2.22-8.64c1.49,0,2.13-.48,2.13-1.85,0-3.52-2-5.21-5.28-5.21-3.62,0-5.68,2.2-5.68,6.58v.48Z" fill="#fff"></path><path d="M641,152c4.83,0,7.08,1.81,7.08,6.07v10.32c0,.23-.09.32-.32.32H647c-.22,0-.32-.09-.32-.32V158.1c0-3.56-1.78-4.8-5.84-4.8a15.75,15.75,0,0,0-4.35.54v14.58c0,.23-.1.32-.32.32h-.76c-.22,0-.32-.09-.32-.32V153.84a1.12,1.12,0,0,1,.79-1.14A17.56,17.56,0,0,1,641,152" fill="#fff"></path><path d="M655.75,148.22c0-.22.09-.32.31-.32h.77c.22,0,.31.1.31.32v4.07h4.77c.22,0,.32.09.32.31v.64a.28.28,0,0,1-.32.32h-4.77v11.05c0,2.13.86,3.12,2.7,3.12a11.11,11.11,0,0,0,2.42-.23c.19,0,.28,0,.28.23v.66c0,.16-.06.22-.22.29a9,9,0,0,1-2.57.32c-2.48,0-4-1.34-4-4.36V153.56H652.6a.28.28,0,0,1-.32-.32v-.64c0-.22.1-.31.32-.31h3.15Z" fill="#fff"></path><path d="M680.33,159.94v1.15c0,4.92-2.54,7.91-7.08,7.91s-7.08-3-7.08-7.91v-1.15c0-4.92,2.51-7.91,7.08-7.91s7.08,3,7.08,7.91m-12.77.16v.83c0,4.6,2,6.8,5.69,6.8s5.69-2.2,5.69-6.8v-.83c0-4.6-2-6.8-5.69-6.8s-5.69,2.2-5.69,6.8" fill="#fff"></path></svg>